# xmcd
#
# Track frame offsets: 
#        150
#        25497
#        54882
#        77102
#        98462
#        125420
#        151807
#
# Disc length: 2378 seconds
#
# Revision: 1
# Processed by: cddbd v1.5.2PL0 Copyright (c) Steve Scherf et al.
# Submitted via: ExactAudioCopy v0.99pb4
#
DISCID=46094807
DTITLE=Sonny Criss - Rockin' In Rhythm
DYEAR=1968
DGENRE=Jazz
TTITLE0=Eleanor Rigby
TTITLE1=When The Sun Comes Out
TTITLE2=Sonnymoon For Two
TTITLE3=Rockin' In Rhythm
TTITLE4=Misty Roses
TTITLE5=(I'm Afraid) The Masquerade Is Over
TTITLE6=All The Things You Are
EXTD=YEAR: 1968
EXTT0=
EXTT1=
EXTT2=
EXTT3=
EXTT4=
EXTT5=
EXTT6=
PLAYORDER=
